<svg xmlns="http://www.w3.org/2000/svg" viewBox="0 0 94 91" role="img" aria-label="jQuery">
  <path fill="#0769AD" fill-rule="nonzero" d="M5.978 21.301C-2.357 33.28-1.319 48.867 5.048 61.596c.151.305.31.605.466.906.1.19.194.386.298.574.059.112.125.222.186.33.108.203.22.396.332.593.198.349.4.696.608 1.043.115.19.228.381.347.571.229.371.465.737.706 1.104.1.156.197.312.3.464.332.496.671.989 1.022 1.475.008.012.018.027.029.039.055.078.116.154.172.232.303.417.615.83.931 1.238.116.149.233.298.35.447.282.354.569.706.861 1.057.109.132.218.264.328.393.392.461.791.92 1.199 1.37.007.007.017.017.024.024.017.02.032.032.046.051.398.435.806.859 1.218 1.284.128.132.259.264.391.393.32.322.645.64.973.955.133.127.265.256.398.378.438.413.881.818 1.333 1.213.008.007.013.012.021.017.077.068.156.132.232.198.398.344.803.686 1.211 1.023.166.134.334.266.502.4.333.266.67.53 1.01.789.179.137.359.273.54.41.375.276.752.547 1.133.813.139.1.273.198.413.293.04.027.074.054.113.08.361.249.731.488 1.1.728.159.105.316.215.476.317.566.359 1.141.713 1.722 1.055.157.09.317.178.476.269.427.247.857.488 1.293.725.236.127.477.247.715.369.308.161.613.325.925.481.071.034.144.068.214.103.126.061.253.12.378.183.485.232.973.459 1.466.679.105.046.206.093.31.139.565.247 1.135.483 1.71.71.138.056.277.11.416.164.532.205 1.072.408 1.614.598.068.024.134.046.203.071.594.208 1.195.4 1.799.588.144.041.289.088.435.129.615.186 1.223.408 1.858.525 40.31 7.351 52.019-24.224 52.019-24.224-9.834 12.812-27.29 16.191-43.829 12.429-.626-.142-1.234-.337-1.846-.518-.155-.046-.308-.093-.46-.139-.597-.183-1.189-.376-1.777-.579-.081-.029-.162-.059-.244-.088-.527-.186-1.049-.381-1.567-.581-.146-.059-.293-.115-.44-.173-.569-.225-1.134-.459-1.692-.703-.115-.049-.225-.1-.338-.149-.48-.217-.955-.437-1.427-.664-.137-.066-.273-.129-.413-.198-.371-.181-.738-.374-1.104-.562-.245-.129-.494-.251-.737-.386-.447-.239-.886-.488-1.323-.742-.148-.083-.298-.163-.447-.249-.581-.342-1.155-.696-1.723-1.055-.157-.1-.31-.207-.465-.31-.412-.266-.822-.537-1.226-.815-.134-.091-.263-.188-.395-.278-.39-.276-.776-.555-1.159-.838-.174-.129-.345-.259-.514-.388-.351-.269-.7-.54-1.046-.818-.156-.125-.312-.249-.466-.374-.439-.361-.874-.725-1.303-1.099-.045-.039-.094-.078-.143-.12-.464-.408-.919-.825-1.37-1.245-.131-.125-.258-.247-.386-.371-.333-.317-.662-.637-.984-.964-.129-.129-.259-.256-.386-.386-.41-.42-.813-.845-1.207-1.277-.02-.022-.04-.041-.06-.063-.417-.457-.825-.923-1.224-1.394-.109-.129-.214-.254-.321-.381-.298-.359-.593-.723-.881-1.089-.108-.132-.216-.267-.323-.403-.347-.45-.686-.899-1.018-1.355-9.182-12.525-12.481-29.8-5.142-43.987"/>
  <path fill="#0769AD" fill-rule="nonzero" d="M31.852 11.208c-6.028 8.674-5.701 20.286-.999 29.46.789 1.538 1.675 3.03 2.666 4.451.903 1.294 1.904 2.835 3.103 3.875.435.479.889.945 1.353 1.404.117.12.237.234.356.352.45.437.908.867 1.382 1.284.02.015.037.034.056.049.005.005.01.007.013.012.524.459 1.064.901 1.614 1.335.122.093.243.19.366.286.551.422 1.112.837 1.688 1.233.017.013.032.024.049.037.254.176.513.34.77.508.123.08.24.166.365.242.411.264.828.52 1.251.767.06.037.118.068.177.102.365.21.735.417 1.106.618.129.073.261.137.393.205.256.134.513.271.774.4.039.02.079.037.117.054.531.261 1.067.513 1.614.752.117.051.238.098.356.146.437.186.879.366 1.323.537.188.071.378.14.566.208.403.149.807.286 1.215.422.184.059.365.12.549.176.58.181 1.152.408 1.757.508 31.123 5.156 38.308-18.806 38.308-18.806-6.477 9.329-19.02 13.78-32.405 10.305-.594-.156-1.18-.327-1.763-.51-.178-.054-.353-.112-.53-.171-.414-.134-.825-.276-1.233-.425-.187-.068-.374-.137-.557-.208-.447-.171-.889-.349-1.327-.535-.12-.051-.24-.098-.358-.151-.549-.239-1.09-.491-1.624-.754-.275-.134-.544-.276-.814-.415-.156-.081-.314-.161-.47-.242-.347-.188-.691-.383-1.03-.581-.081-.046-.165-.09-.247-.139-.421-.247-.836-.5-1.248-.762-.127-.08-.249-.168-.376-.251-.271-.176-.542-.354-.808-.535-.574-.396-1.132-.81-1.682-1.23-.127-.1-.254-.198-.378-.298-5.859-4.626-10.503-10.947-12.711-18.115-2.314-7.434-1.815-15.779 2.194-22.551"/>
  <path fill="#0769AD" fill-rule="nonzero" d="M53.613 3.667c-3.554 5.23-3.903 11.724-1.437 17.5 2.6 6.13 7.929 10.94 14.147 13.22.256.095.513.181.773.269.114.034.226.073.341.107.366.115.73.249 1.108.32 17.185 3.32 21.846-8.818 23.087-10.605-4.083 5.879-10.945 7.29-19.364 5.247-.665-.162-1.396-.402-2.037-.629-.822-.293-1.632-.627-2.419-1.005-1.495-.718-2.92-1.59-4.241-2.588-7.534-5.716-12.214-16.621-7.298-25.502"/>
</svg>
